@startuml Name Parser State Diagram - First name first

[*] --> FN: 1
FN --> FN: 0.256251576
FN --> PFN: 0.028472397
FN --> LN1: 0.704144114
FN --> PLN1: 0.011131913
PFN --> PFN: 0.150
PFN --> FN: 0.850
LN1 --> LN1: 0.007015434
LN1 --> PLN1: 0.007017087
LN1 --> LN2: 0.960638112
LN1 --> PLN2: 0.014719859
LN1 --> [*]: 0.010609508
PLN1 --> PLN1: 0.150
PLN1 --> LN1: 0.850
LN2 --> LN2: 0.004290151
LN2 --> PLN2: 0.006801967
LN2 --> [*]: 0.988907882
PLN2 --> PLN2: 0.150
PLN2 --> LN2: 0.850

@enduml